<?xml version="1.0" standalone="no"?><!DOCTYPE svg PUBLIC "-//W3C//DTD SVG 1.1//EN" "http://www.w3.org/Graphics/SVG/1.1/DTD/svg11.dtd"><svg t="1776220328978" class="icon" viewBox="0 0 1024 1024" version="1.1" xmlns="http://www.w3.org/2000/svg" p-id="6332" xmlns:xlink="http://www.w3.org/1999/xlink" width="128" height="128"><path d="M244.222 61.766C182.692 50.22 45.382 97.17 42.726 111.234c-2.624 14.046 108.278 107.638 169.808 119.186 61.53 11.562 118.466-16.828 127.216-63.406 8.75-46.562-34.03-93.686-95.528-105.248z" fill="#A0D468" p-id="6333"></path><path d="M426.718 89.64a21.32 21.32 0 0 0-21.342-21.328c-2.406 0-4.718 0.422-6.876 1.156l-0.032-0.016c-1.032 0.376-26.188 9.108-52.28 29.906-35.342 28.188-56.218 65.328-60.342 107.388l42.468 4.172c2.968-30.344 17.594-56.374 43.436-77.358 20.406-16.562 40.406-23.688 40.624-23.75v-0.016c8.344-2.888 14.344-10.81 14.344-20.154z" fill="#434A54" p-id="6334"></path><path d="M532.186 495.398c0 164.12-3.624 298.086-150.592 298.086-146.966 0-381.584 34.154-381.584-298.086 0-332.228 237.088-299.072 384.054-299.072 146.934 0 148.122 134.966 148.122 299.072z" fill="#DB4C3A" p-id="6335"></path><path d="M640.088 495.006c0 227.134-115.746 298.696-258.494 298.696-142.748 0-258.494-60.656-258.494-298.696 0-238.01 115.748-298.682 258.494-298.682 142.748 0.002 258.494 71.562 258.494 298.682z" fill="#E9573F" p-id="6336"></path><path d="M725.37 942.7c-1.376-0.032-70.812-0.782-139.092-37.218-39.404-21-70.874-49.81-93.592-85.498-28.688-45.124-43.686-101.936-44.624-168.902-1.282-92.154 24.5-171.87 70.718-218.76 28.562-28.952 62.81-43.624 101.872-43.624 29.75 0 61.688 8.672 94.938 25.782l9.782 5.014 9.748-5.014c33.282-17.11 65.154-25.782 94.748-25.782 38.406 0 72.188 14.376 100.436 42.734 46.374 46.608 72.748 126.746 72.374 219.87-0.312 66.874-14.906 123.686-43.404 168.746-22.594 35.688-54.092 64.436-93.686 85.436-68.692 36.434-138.876 37.184-140.218 37.216z" fill="#FFCE54" p-id="6337"></path><path d="M829.866 367.352c-31.906 0-66.936 8.828-104.496 28.156-37.562-19.312-72.688-28.156-104.718-28.156-119.746-0.016-196.182 123.42-193.932 284.008 4.376 312.306 297.308 312.682 298.652 312.682 1.282 0 297.242-0.344 298.618-312.682 0.716-160.572-74.846-284.008-194.124-284.008z m111.842 440.508c-20.376 32.498-48.904 58.746-84.842 78.09-63.188 34-128.558 35.376-131.496 35.406-2.906-0.032-67.532-1.406-130.376-35.376-81.778-44.248-124.058-123.372-125.622-235.182-0.594-44.216 5.124-84.966 17.094-121.138 11.094-33.606 27.532-62.09 47.5-82.372 24.404-24.734 53.56-37.264 86.652-37.264h0.032c26.312 0 54.968 7.89 85.188 23.42l19.532 10.046 19.498-10.046c30.218-15.546 58.81-23.42 84.998-23.42 32.532 0 61.218 12.264 85.312 36.466 20.092 20.188 36.716 48.75 48.09 82.606 12.156 36.328 18.25 77.422 18.062 122.076-0.282 62.5-13.624 115.188-39.622 156.688z" fill="#FC6E51" p-id="6338"></path><path d="M829.866 367.352c-14.062 0-28.75 1.718-43.968 5.296 95.094 25.172 153.374 137.59 152.748 278.712-1.032 238.182-173.402 294.932-255.776 308.432 25.438 4.218 42.188 4.25 42.5 4.25 1.282 0 297.242-0.344 298.618-312.682 0.718-160.572-74.844-284.008-194.122-284.008z" fill="#FFFFFF" opacity=".2" p-id="6339"></path><path d="M725.432 367.352a21.322 21.322 0 0 0-21.344 21.344v85.874h42.654v-85.874c0-11.796-9.532-21.344-21.31-21.344z" fill="#434A54" p-id="6340"></path><path d="M832.24 623.02c0 94.278-106.808 170.684-106.808 170.684s-106.844-76.406-106.844-170.684c0-94.266 106.844-170.684 106.844-170.684s106.808 76.418 106.808 170.684z" fill="#A85D5D" p-id="6341"></path><path d="M747.43 559.02c0 11.782-9.562 21.344-21.342 21.344-11.782 0-21.312-9.562-21.312-21.344s9.532-21.344 21.312-21.344c11.78 0 21.342 9.562 21.342 21.344zM746.742 687.048c0 11.748-9.532 21.31-21.31 21.31-11.812 0-21.344-9.562-21.344-21.31 0-11.812 9.532-21.376 21.344-21.376 11.778 0.002 21.31 9.564 21.31 21.376zM714.744 623.02c0 11.78-9.562 21.342-21.344 21.342s-21.312-9.562-21.312-21.342c0-11.782 9.532-21.344 21.312-21.344s21.344 9.562 21.344 21.344zM778.74 623.02c0 11.78-9.53 21.342-21.31 21.342a21.332 21.332 0 0 1-21.344-21.342c0-11.782 9.532-21.344 21.344-21.344 11.78 0 21.31 9.562 21.31 21.344z" fill="#965353" p-id="6342"></path></svg>